#tb 0: 1/2
#media_type 0: video
#codec_id 0: rawvideo
#dimensions 0: 320x240
#sar 0: 1/1
0,          0,          0,        1,   230400, 0x091f3ed7
0,          1,          1,        1,   230400, 0x4151292d
0,          2,          2,        1,   230400, 0xe7066e96
0,          3,          3,        1,   230400, 0x57c20d15
0,          4,          4,        1,   230400, 0x01269a37
0,          5,          5,        1,   230400, 0xb2b04e5c
0,          6,          6,        1,   230400, 0x98fc479f
0,          7,          7,        1,   230400, 0x561915bb
0,          8,          8,        1,   230400, 0xd60c45f7
0,          9,          9,        1,   230400, 0x747d8a28
0,         10,         10,        1,   230400, 0x92505d36
0,         11,         11,        1,   230400, 0x9476af1f
0,         12,         12,        1,   230400, 0x1382c3d0
0,         13,         13,        1,   230400, 0x94ea40bd
0,         14,         14,        1,   230400, 0x8d46229a
0,         15,         15,        1,   230400, 0xe5736654
0,         16,         16,        1,   230400, 0x04bd4db2
0,         17,         17,        1,   230400, 0x4d721ad2
0,         18,         18,        1,   230400, 0xebe151a2
0,         19,         19,        1,   230400, 0xa1263f01
